PathFileType	4	(X/Y/Z)	./resultDataOpenSim/trcMotMarkerGrf/sub06/qtm-12-01.trc
DataRate	CameraRate	NumFrames	NumMarkers	Units	OrigDataRate	OrigDataStartFrame	OrigNumFrames
250.000000	250.000000	11	24	m	250.000000	1	490
Frame#	Time	L.Toe.Tip			R.Toe.Tip			L.Ankle.Lat			R.Ankle.Lat			L.Ankle.Med			R.Ankle.Med			L.Heel			R.Heel			L.Knee.Lat			R.Knee.Lat			L.Knee.Med			R.Knee.Med			L.Thigh.Upper			R.Thigh.Upper			L.ASIS			R.ASIS			V.Sacral			L.Acromium			R.Acromium			C7			L.Elbow			R.Elbow			L.Wrist.Lat			R.Wrist.Lat
		X1	Y1	Z1	X2	Y2	Z2	X3	Y3	Z3	X4	Y4	Z4	X5	Y5	Z5	X6	Y6	Z6	X7	Y7	Z7	X8	Y8	Z8	X9	Y9	Z9	X10	Y10	Z10	X11	Y11	Z11	X12	Y12	Z12	X13	Y13	Z13	X14	Y14	Z14	X15	Y15	Z15	X16	Y16	Z16	X17	Y17	Z17	X18	Y18	Z18	X19	Y19	Z19	X20	Y20	Z20	X21	Y21	Z21	X22	Y22	Z22	X23	Y23	Z23	X24	Y24	Z24

1	0	-1.5680729	0.032355024	-0.093209684	-0.89216418	0.1299752	0.11231311	-1.6928886	0.078370782	-0.10303579	-1.0234518	0.092947898	0.12290243	-1.6869014	0.087806127	-0.016425445	-1.0090802	0.12293762	0.039641866	NaN	NaN	NaN	-1.0528084	0.046470495	0.052061238	-1.5144941	0.40877195	-0.12193029	-1.1662216	0.45200445	0.13222211	-1.526777	0.41610814	0.0011444429	-1.1790837	0.42889829	0.00054475904	-1.4013003	0.77648234	-0.18086531	-1.3509415	0.77291024	0.167143	-1.3122464	0.81388111	-0.14731659	-1.2760309	0.82278382	0.096821975	-1.467367	0.90407518	0.01063197	-1.3060713	1.3040295	-0.20112434	-1.3195849	1.2899592	0.16192914	-1.3885614	1.3390953	-0.023015169	-1.2728074	0.98204709	-0.26951559	-1.4745397	1.0156993	0.21488423	-1.0477391	0.88083479	-0.23064486	-1.4335805	0.78446359	0.25926405
2	0.004	-1.5680601	0.032336125	-0.093248133	-0.88309197	0.1312946	0.1118336	-1.6925857	0.079399506	-0.10327988	-1.0139131	0.093067979	0.12249128	-1.6848793	0.089058339	-0.017087853	-0.99992886	0.12334049	0.039134751	NaN	NaN	NaN	-1.0430645	0.046440208	0.051593338	-1.5106478	0.4083435	-0.12210589	-1.159119	0.45109447	0.13215136	-1.5220803	0.41548093	0.00093008418	-1.1723837	0.42786032	0.00032321822	-1.3960491	0.77541912	-0.18073494	-1.3435388	0.77148812	0.16728078	-1.3064985	0.81258755	-0.14706796	-1.2691993	0.82123809	0.096515631	-1.4612859	0.90296377	0.011219579	-1.2998567	1.3029276	-0.20053624	-1.3138247	1.2885454	0.162593	-1.3825827	1.337935	-0.022556969	-1.2650784	0.98119168	-0.269136	-1.4713131	1.0159284	0.21558303	-1.0397422	0.88096299	-0.22972069	-1.431976	0.78358195	0.26021894
3	0.008	-1.5680413	0.032314238	-0.093283649	-0.87430898	0.13225749	0.11127658	-1.6917921	0.080518599	-0.10354853	-1.0047402	0.093060509	0.12199508	-1.6826953	0.090451276	-0.017726234	-0.99112423	0.12359811	0.038597444	NaN	NaN	NaN	-1.0337453	0.046315626	0.051109384	-1.5066785	0.40788185	-0.12229488	-1.1519452	0.45026263	0.1320676	-1.5173797	0.41483153	0.00071270029	-1.1656306	0.42690799	0.0001450471	-1.3907675	0.77439787	-0.18059122	-1.3362565	0.7701356	0.16740949	-1.3007416	0.81132954	-0.14688724	-1.2623653	0.81975876	0.096216715	-1.4551898	0.90186953	0.011740318	-1.2935792	1.3018759	-0.19994635	-1.3080654	1.287178	0.16326406	-1.3765778	1.3367972	-0.022091765	-1.2573921	0.98036898	-0.26875704	-1.4672926	1.0157274	0.21586411	-1.0318117	0.88106483	-0.22881395	-1.4303397	0.78273211	0.26116064
4	0.012	-1.5680073	0.032282872	-0.093313258	-0.86597662	0.13265278	0.11057561	-1.6905722	0.081770897	-0.10386225	-0.99614582	0.092840788	0.12139247	-1.6803248	0.092024604	-0.018350144	-0.98286158	0.12360977	0.038001114	NaN	NaN	NaN	-1.0251215	0.046050773	0.050575027	-1.502516	0.40738093	-0.1224957	-1.1446485	0.44954568	0.13196682	-1.5126411	0.41417142	0.00048856752	-1.158771	0.42610812	3.3326619e-05	-1.3854275	0.77344306	-0.18042765	-1.3290667	0.76891725	0.16753201	-1.2949668	0.8101304	-0.14684518	-1.2554808	0.81837338	0.095915083	-1.4490121	0.90085039	0.012251434	-1.2872135	1.3008978	-0.19935034	-1.3022658	1.2858778	0.16394492	-1.3705139	1.3357025	-0.021590952	-1.2497674	0.97959089	-0.26837348	-1.4623256	1.0150507	0.21567613	-1.0239648	0.88112587	-0.22792631	-1.4285124	0.78195098	0.26208394
5	0.016	-1.5679467	0.032220935	-0.093336067	-0.85815285	0.13243723	0.10968831	-1.689349	0.083136074	-0.10423154	-0.98819335	0.092379815	0.12071663	-1.6779223	0.09370144	-0.018998491	-0.97519799	0.12332038	0.037330945	NaN	NaN	NaN	-1.0173023	0.045624956	0.049997718	-1.4981592	0.40687541	-0.12270402	-1.1372104	0.44894635	0.13185269	-1.5078565	0.41351925	0.00026474531	-1.1517798	0.42549218	-8.887792e-06	-1.3800191	0.77256048	-0.18022372	-1.3218922	0.76786333	0.16765648	-1.2891692	0.80899913	-0.1470124	-1.2485247	0.81707955	0.095597664	-1.4426473	0.89997706	0.012923523	-1.2807753	1.2999889	-0.19873481	-1.2963886	1.2846457	0.164635	-1.3643777	1.334663	-0.021027692	-1.242217	0.97885868	-0.26796898	-1.4568097	1.0141689	0.21527197	-1.0161902	0.88114671	-0.22704775	-1.4263665	0.78126275	0.26299993
6	0.02	-1.5678603	0.032102943	-0.09336176	-0.85085544	0.13166107	0.10858514	-1.6881882	0.084607933	-0.10466757	-0.98086596	0.091681278	0.12000547	-1.6756808	0.095387874	-0.019708096	-0.96813905	0.12270585	0.036587712	NaN	NaN	NaN	-1.0102904	0.045019225	0.049420555	-1.4936259	0.40641406	-0.12292349	-1.1296532	0.44845093	0.13171482	-1.5030447	0.41287195	5.871287e-05	-1.1446507	0.42505798	8.8528487e-06	-1.3745363	0.77174187	-0.17994956	-1.3147342	0.7669513	0.16778266	-1.2833382	0.80791864	-0.14743328	-1.2415069	0.81587375	0.095263988	-1.4359967	0.89927051	0.013910929	-1.2742794	1.299135	-0.19808048	-1.2904177	1.2834783	0.16533536	-1.3581701	1.3336787	-0.020395371	-1.2347422	0.97817687	-0.26752334	-1.4511867	1.0133655	0.21492161	-1.0084714	0.88113199	-0.22616657	-1.4239477	0.78066995	0.26393389
7	0.024	-1.5677784	0.031939709	-0.093416689	-0.84410705	0.13039999	0.10725108	-1.6866904	0.086218511	-0.10518432	-0.97413927	0.090761399	0.11928451	-1.673682	0.097054664	-0.020479221	-0.96169364	0.12176902	0.035780243	NaN	NaN	NaN	-1.0040503	0.044225258	0.048860412	-1.4889204	0.40601995	-0.12315415	-1.1220423	0.44803641	0.13152708	-1.4981931	0.41224077	-0.0001251909	-1.1373915	0.42479105	6.5993667e-05	-1.3689704	0.77097542	-0.1795958	-1.3076427	0.76615539	0.16790758	-1.2774723	0.80683716	-0.14806291	-1.2344192	0.81476849	0.094930369	-1.4290876	0.89866553	0.015173733	-1.2677342	1.2983345	-0.19737855	-1.2843632	1.2823799	0.16604842	-1.351902	1.3327442	-0.019706528	-1.2273409	0.97755137	-0.2670248	-1.4456505	1.0127525	0.21473689	-1.0008255	0.88107921	-0.22528344	-1.4212413	0.78018304	0.26491594
8	0.028	-1.5677436	0.031784215	-0.093526602	-0.83793882	0.12872232	0.10570491	-1.684633	0.087953274	-0.10577564	-0.96800298	0.089643503	0.11856071	-1.6718812	0.098729893	-0.02127503	-0.95585407	0.12052862	0.034921038	NaN	NaN	NaN	-0.99855322	0.043236067	0.048322904	-1.4840385	0.4056804	-0.12338666	-1.1144119	0.44768415	0.13128219	-1.4932559	0.41166281	-0.00030381303	-1.1300204	0.42468018	0.00013996166	-1.3633076	0.77025275	-0.17917557	-1.3006225	0.76548571	0.16803657	-1.2715709	0.80570744	-0.14875891	-1.2272298	0.8137845	0.094626927	-1.4221026	0.89805712	0.016488667	-1.2611461	1.2976026	-0.1966344	-1.2782472	1.2813614	0.1667774	-1.3455895	1.3318572	-0.018990512	-1.2200164	0.9769853	-0.2664773	-1.4401732	1.0122889	0.21468727	-0.99329984	0.88098373	-0.22441413	-1.4179468	0.77984029	0.26597486
9	0.032	-1.5677573	0.031679875	-0.093684064	-0.83237378	0.12667698	0.10398999	-1.6823312	0.089730912	-0.10641198	-0.9624425	0.088357543	0.11781085	-1.6701815	0.1004549	-0.0220624	-0.95058426	0.11900691	0.034021128	NaN	NaN	NaN	-0.99379566	0.0420335	0.047850562	-1.4789885	0.40536358	-0.12361788	-1.1067362	0.44738789	0.13100323	-1.4881691	0.41114047	-0.00049571413	-1.1225623	0.4247154	0.00022453523	-1.3575339	0.7695651	-0.17870243	-1.2936367	0.76495533	0.16817137	-1.265605	0.80457401	-0.149356	-1.2199378	0.81293587	0.094381926	-1.4152418	0.89741506	0.017711541	-1.2545152	1.2969549	-0.19585642	-1.2720728	1.2804261	0.16752482	-1.339242	1.3310188	-0.018275689	-1.2127767	0.97648166	-0.26590248	-1.4346623	1.0118996	0.21470568	-0.9859313	0.88084848	-0.2235736	-1.4137958	0.77966463	0.2671179
10	0.036	-1.5677685	0.031627534	-0.093848209	-0.827412	0.12429452	0.10214665	-1.6803527	0.0914974	-0.10707322	-0.95743121	0.0869271	0.11700029	-1.6685056	0.10225375	-0.022847561	-0.94585172	0.11722783	0.033083133	NaN	NaN	NaN	-0.98978464	0.040608461	0.047489687	-1.4737878	0.40504028	-0.12385732	-1.0990078	0.44714111	0.13071003	-1.4828636	0.41062823	-0.0007108083	-1.1150476	0.42488014	0.00033112895	-1.351639	0.76890282	-0.17817961	-1.2866456	0.76454948	0.16830625	-1.2595165	0.8035732	-0.14973526	-1.2125878	0.81222576	0.094204188	-1.4085898	0.89682638	0.018908325	-1.2478404	1.2963927	-0.19504429	-1.265834	1.2795629	0.16829303	-1.3328578	1.3302294	-0.017567655	-1.2056272	0.97604245	-0.26532343	-1.429058	1.0115457	0.21475361	-0.97873283	0.88068034	-0.22276499	-1.4090127	0.77960349	0.26830545
11	0.04	-1.5677247	0.03160457	-0.093983898	-0.82302939	0.12159807	0.1002137	-1.6790847	0.09328067	-0.10775478	-0.95296022	0.085342198	0.11611958	-1.6668143	0.10413114	-0.023662463	-0.94164409	0.11522277	0.032105513	NaN	NaN	NaN	-0.9864984	0.038986402	0.047219394	-1.4684386	0.40469684	-0.12411188	-1.0912609	0.44693137	0.13039792	-1.4773215	0.41010316	-0.00095834728	-1.1075116	0.42514959	0.00047036071	-1.3456145	0.76826794	-0.17761514	-1.2795806	0.76424748	0.16845831	-1.2532601	0.80280286	-0.14986025	-1.2052121	0.81164933	0.094084399	-1.4020339	0.89638452	0.020140477	-1.2411298	1.295906	-0.19418915	-1.2595423	1.2787591	0.16908466	-1.3264334	1.3294873	-0.016856963	-1.1985669	0.97566667	-0.26474205	-1.4233432	1.0112212	0.21482275	-0.97171121	0.8804812	-0.22198444	-1.404188	0.77955633	0.26947141
